EMG
version=1
nRows=24
nColumns=17
inDegrees=no
endheader
time	_right_gast_med	_right_glut_max	_left_gast_med	_left_glut_max	_right_glut_med	_right_bic_fem	_right_rect_fem	_right_vast_lat	_right_vast_med	_right_tens_fasc_lat	_left_glut_med	_left_bic_fem	_left_rect_fem	_left_vast_lat	_left_vast_med	_left_tens_fasc_lat
      1.78000000	     -1.80301797	      0.31864530	     -0.00471898	     -0.00558339	     -0.00705599	      0.01376544	      0.00815954	      0.03321407	     -0.00290986	      0.00974617	     -0.01078223	      0.00919745	      0.00871934	      0.01695858	     -0.00771191	      0.06587945
      1.79000000	     -2.13510513	      0.21527876	     -0.00180553	     -0.00511635	      0.00997714	      0.01596335	     -0.00789949	      0.03279584	     -0.00049850	      0.00896297	      0.00112374	      0.00712313	     -0.00271678	     -0.01014051	      0.00117678	      0.07456648
      1.80000000	     -0.56106025	      0.05477722	      0.01100905	     -0.01080267	      0.02273605	      0.02055170	     -0.01191772	      0.02245586	      0.00147718	      0.00851807	      0.00274948	      0.00717105	     -0.00467028	     -0.03195446	     -0.02661307	      0.02005039
      1.81000000	      0.46605948	     -0.03789151	      0.06741414	     -0.00580307	      0.03491068	      0.01864505	     -0.00742090	      0.00614691	      0.00767105	      0.00485351	      0.00441489	      0.01288103	      0.00202384	     -0.03277051	     -0.03890860	     -0.05165407
      1.82000000	      0.69063073	     -0.02883976	      0.02733856	      0.02021335	      0.02502071	      0.00977238	      0.00038900	     -0.00363130	      0.02100916	      0.00164044	      0.01237519	      0.02179674	      0.00566080	     -0.02234397	     -0.00558849	     -0.08089572
      1.83000000	      0.65570319	     -0.02050354	     -0.02428009	      0.01656777	      0.00512271	      0.00222725	      0.00915288	     -0.00110369	      0.02546365	      0.00017849	      0.01682270	      0.02467420	      0.00781585	     -0.01498851	      0.02146464	     -0.07631335
      1.84000000	      0.56522614	     -0.08083770	     -0.03558008	     -0.01877647	     -0.00504482	      0.00085770	      0.01309989	      0.00745984	      0.02361174	     -0.00085332	      0.01750934	      0.01030000	      0.00732269	     -0.01731302	      0.02557350	     -0.05821443
      1.85000000	      0.46032086	     -0.10236813	     -0.02034219	      0.00684239	     -0.01290218	      0.00361558	      0.01208957	      0.00843366	      0.01745724	     -0.00618091	      0.01873570	     -0.00074665	      0.00739435	     -0.02352242	      0.03445620	     -0.03323419
      1.86000000	      0.35902786	     -0.05388436	      0.01887281	      0.04478547	     -0.01610981	      0.00353422	      0.00819285	     -0.00037392	      0.01663649	     -0.00571053	      0.02469590	     -0.00350612	      0.01056574	     -0.02341116	      0.05113538	      0.00082382
      1.87000000	      0.27040714	      0.00642694	      0.05824754	     -0.00543586	     -0.01290617	      0.00117360	      0.00107655	     -0.00813346	      0.01503131	      0.00483818	      0.02614188	      0.00477097	      0.00875210	     -0.00438692	      0.04497135	      0.03255572
      1.88000000	      0.19995166	      0.02610295	      0.04638366	      0.05628519	     -0.00482702	     -0.00211689	     -0.00015384	     -0.01041455	      0.01212235	      0.01717407	      0.01778500	      0.00904503	      0.00603665	      0.03628347	     -0.01057432	      0.03987296
      1.89000000	      0.14814554	      0.01260703	     -0.01793261	      0.92683899	      0.00677149	     -0.00364080	      0.00653770	     -0.00831322	      0.01108507	      0.02707722	      0.01341033	      0.00927037	      0.01269918	      0.05673724	     -0.07064175	      0.03041584
      1.90000000	      0.11328503	     -0.00943932	     -0.05710021	      1.03958976	      0.02040972	     -0.00104281	      0.00904270	     -0.00445084	      0.01196612	      0.02299934	      0.01031965	      0.01415713	      0.01655843	      0.01339268	     -0.04743643	      0.01849972
      1.91000000	      0.08662280	     -0.00848618	      0.00489507	     -1.71746564	      0.02932180	      0.01533217	      0.00665160	     -0.00311969	      0.01344046	      0.01535925	      0.00446797	      0.02131131	      0.01079285	     -0.00848734	      0.01723385	      0.01042191
      1.92000000	      0.05738738	      0.00744565	      0.05760500	     -2.47802258	      0.03036555	      0.02412905	      0.00762926	     -0.00326401	      0.00910224	      0.00939234	      0.00016435	      0.02858841	      0.00850435	      0.03218459	      0.04962596	      0.00686968
      1.93000000	      0.03678669	      0.01253021	     -0.02683490	     -0.68963242	      0.02482840	      0.01800912	      0.01232115	      0.00492485	      0.00475270	      0.00458165	     -0.00294055	      0.02571128	      0.01053585	      0.04198564	      0.04855284	      0.00960491
      1.94000000	      0.02909713	      0.00695893	     -0.06359515	      0.59266979	      0.02033201	      0.00574737	      0.01758464	      0.01799280	      0.00307815	      0.00842114	     -0.00337320	      0.02061492	      0.00979656	      0.02102522	      0.03083257	      0.02231320
      1.95000000	      0.01951079	     -0.00030598	      0.02423014	      0.86291850	      0.02086304	      0.00626739	      0.01683968	      0.01514995	      0.00089525	      0.01323709	     -0.00342444	      0.02073175	      0.00762230	      0.00685047	      0.02351069	      0.03815261
      1.96000000	      0.00566716	     -0.00548396	      0.05923018	      0.79574096	      0.01254968	      0.01409190	      0.01151373	      0.02365861	     -0.00193332	      0.01097219	     -0.00116250	      0.01753595	      0.00605822	     -0.00196555	      0.03248783	      0.03956813
      1.97000000	      0.00540490	     -0.00403298	      0.02497626	      0.66623896	     -0.00356947	      0.02124358	      0.01123146	      0.03820040	     -0.00618889	      0.00432249	      0.00942349	      0.01129784	      0.00726073	     -0.00238955	      0.02666296	      0.03330904
      1.98000000	      0.00562226	      0.00354432	     -0.01831252	      0.53343141	     -0.00999786	      0.03610009	      0.01328935	      0.04420698	     -0.00053679	      0.00286080	      0.01919301	      0.00585282	      0.00782304	      0.00215285	     -0.00575785	      0.02840190
      1.99000000	     -0.04817786	      0.01187232	     -0.00007011	      0.42161661	      0.00000089	      0.03125532	      0.01291819	      0.05472690	      0.00479141	      0.00706117	      0.02344661	     -0.00313890	      0.00665258	      0.00314168	     -0.03658277	      0.02323480
      2.00000000	     -0.04704056	      0.01736612	     -0.01650579	      0.31031105	      0.00708653	      0.01795016	      0.00778454	      0.05417618	     -0.09460714	      0.01588508	      0.02109266	     -0.01050449	      0.00874484	      0.00255985	     -0.03961250	      0.01597721
      2.01000000	      0.01912294	     -0.00232842	     -0.01131137	      0.21722752	      0.00680287	      0.01746392	      0.01438101	     -0.00328759	     -0.39100343	      0.02764054	      0.01045100	     -0.01320108	      0.01510478	      0.00972788	     -0.02588854	      0.00801960
